<?xml version="1.0" encoding="UTF-8" standalone="no"?>
<svg
   xmlns:dc="http://purl.org/dc/elements/1.1/"
   xmlns:cc="http://creativecommons.org/ns#"
   xmlns:rdf="http://www.w3.org/1999/02/22-rdf-syntax-ns#"
   xmlns:svg="http://www.w3.org/2000/svg"
   xmlns="http://www.w3.org/2000/svg"
   xmlns:sodipodi="http://sodipodi.sourceforge.net/DTD/sodipodi-0.dtd"
   xmlns:inkscape="http://www.inkscape.org/namespaces/inkscape"
   inkscape:export-ydpi="300"
   inkscape:export-xdpi="300"
   inkscape:export-filename="/home/sherlock/Video/Artweek/gimpscape-assets/artweek-opening.png"
   sodipodi:docname="artweek-logo.svg"
   inkscape:version="1.0 (4035a4fb49, 2020-05-01)"
   id="svg8"
   version="1.1"
   viewBox="0 0 508 285.75"
   height="285.75mm"
   width="508mm">
  <defs
     id="defs2">
    <linearGradient
       id="a">
      <stop
         id="stop7"
         stop-color="#2f90fb"
         offset="0" />
      <stop
         id="stop9"
         stop-color="#1d7ee9"
         offset="1" />
    </linearGradient>
  </defs>
  <sodipodi:namedview
     id="base"
     pagecolor="#acacac"
     bordercolor="#666666"
     borderopacity="1.0"
     inkscape:pageopacity="0"
     inkscape:pageshadow="2"
     inkscape:zoom="0.38618477"
     inkscape:cx="1130.8944"
     inkscape:cy="169.66919"
     inkscape:document-units="mm"
     inkscape:current-layer="svg8"
     inkscape:document-rotation="0"
     showgrid="false"
     inkscape:snap-global="true"
     inkscape:snap-nodes="true"
     inkscape:object-nodes="false"
     inkscape:snap-others="false"
     inkscape:snap-to-guides="false"
     inkscape:snap-grids="false"
     inkscape:lockguides="false"
     inkscape:window-width="1920"
     inkscape:window-height="1036"
     inkscape:window-x="0"
     inkscape:window-y="36"
     inkscape:window-maximized="1"
     inkscape:snap-page="true" />
  <metadata
     id="metadata5">
    <rdf:RDF>
      <cc:Work
         rdf:about="">
        <dc:format>image/svg+xml</dc:format>
        <dc:type
           rdf:resource="http://purl.org/dc/dcmitype/StillImage" />
        <dc:title></dc:title>
      </cc:Work>
    </rdf:RDF>
  </metadata>
  <rect
     inkscape:label="Background"
     style="fill:#ffffff;stroke:none;stroke-width:2.6494;stroke-linecap:square;paint-order:markers fill stroke"
     id="rect1255"
     width="508"
     height="285.75"
     x="-1.1368684e-13"
     y="0" />
  <g
     inkscape:groupmode="layer"
     transform="translate(-1021.6732,-99.486244)"
     id="gimpscape">
    <path
       id="path1271"
       style="fill:#0c64c9;fill-opacity:1;stroke-width:0.73216"
       d="m 1244.3864,198.88857 c -1.1833,0.0315 -3.2324,0.94535 -5.146,2.38953 -1.8253,1.37864 -2.8687,2.531 -3.5899,3.96822 -0.2815,0.5601 -0.4442,1.11006 -0.5307,1.64073 v 0 c -0.3107,1.90437 0.5782,3.51229 2.4344,4.01733 1.0038,0.2731 3.4001,0.11369 4.5832,-0.30438 0.6492,-0.22976 0.9914,-0.2949 1.1571,-0.13229 0,0 0,0 0,0 0.1521,0.15007 0.1563,0.49102 0.083,1.11982 -0.109,0.92837 -0.074,1.13941 0.2186,1.35393 0.4707,0.34412 1.0263,0.0306 1.355,-0.76377 0.1399,-0.33753 0.6723,-2.07023 1.1849,-3.8494 0.9093,-3.16584 0.9218,-3.2448 0.5711,-3.63283 -0.1977,-0.21746 -0.5034,-0.39585 -0.6791,-0.39585 -0.4869,0 -4.318,1.53385 -4.7046,1.8831 -0.399,0.36168 -0.441,0.89109 -0.092,1.18028 0.1362,0.11202 0.6813,0.23243 1.2113,0.26614 0.924,0.0581 1.1679,0.34594 0.7369,0.68419 -0.091,0.071 -0.1705,0.14192 -0.325,0.216 -0.8779,0.42098 -3.4979,0.87127 -4.2483,0.7307 -1.0229,-0.19182 -1.6898,-0.79928 -1.6878,-1.53583 0,-0.42666 0.1546,-0.89834 0.3819,-1.3844 v 0 c 0.9181,-1.96363 3.5077,-4.26175 6.6792,-5.74538 1.3728,-0.64283 1.6545,-0.9616 1.265,-1.43091 -0.1649,-0.19863 -0.4634,-0.28594 -0.8578,-0.27546 z"
       inkscape:label="G" />
    <path
       style="fill:#0c64c9;fill-opacity:1;stroke-width:0.732159"
       d="m 1300.7462,200.09336 c -0.2138,-0.0512 -0.5931,-0.28115 -0.8435,-0.51031 -0.399,-0.36388 -0.4437,-0.5418 -0.3551,-1.41819 0.061,-0.59891 0.3851,-1.56682 0.8076,-2.40808 0.4759,-0.94741 0.6685,-1.55437 0.5916,-1.85968 -0.1684,-0.67359 0.5908,-1.31349 2.1203,-1.78647 1.5061,-0.46492 2.586,-0.51324 3.097,-0.13911 0.708,0.51691 -0.1471,1.28641 -1.4306,1.28641 -0.9496,0 -1.7096,0.37999 -1.9571,0.97816 -0.3931,0.94815 -0.1647,1.17585 1.0375,1.03454 2.1138,-0.2482 1.4863,0.82368 -0.9694,1.65468 -1.353,0.4576 -1.5243,0.57035 -1.5785,1.0382 -0.057,0.48689 -0.01,0.52496 0.6502,0.52496 0.3917,0 1.4313,-0.18816 2.3092,-0.41879 1.7154,-0.44955 2.2353,-0.39976 2.2353,0.21379 0,0.52203 -0.8003,0.91007 -3.0509,1.48115 -1.8817,0.47737 -1.9922,0.49055 -2.6636,0.32874 z"
       id="path1257"
       inkscape:label="E" />
    <path
       d="m 1298.1287,193.07463 c -0.06,-0.003 -0.1247,-0.003 -0.1964,0 -0.1953,0.007 -0.4408,0.0289 -0.7638,0.0589 -1.5735,0.14642 -3.5716,0.73496 -4.0907,1.20353 -0.3866,0.35071 -0.514,1.24437 -0.1773,1.24437 0.253,0 0.2498,0.89132 -0.01,1.36943 -0.1574,0.29437 -0.4104,0.37465 -1.1828,0.37465 h -0.9824 l 0.1334,-1.50326 c 0.1207,-1.36036 0.093,-1.55422 -0.2843,-2.03451 -0.2299,-0.29142 -0.609,-0.53071 -0.8433,-0.53071 -1.0097,0 -2.9464,1.99602 -4.484,4.61937 -0.6985,1.19194 -0.871,1.32958 -2.3265,1.85671 -0.3654,0.13253 -0.3545,0.16687 0.1814,0.59738 0.5624,0.45174 0.566,0.46863 0.339,1.45264 -0.2562,1.10921 -0.3002,2.18826 -0.097,2.39106 0.2943,0.29433 0.5884,-0.0748 1.5658,-1.96008 0.9679,-1.86921 1.061,-1.98126 1.8122,-2.18334 1.1107,-0.29872 1.4038,-0.14494 1.2522,0.66042 -0.1625,0.86614 0.025,1.28365 0.5736,1.28365 0.5425,0 0.9426,-0.52705 1.3658,-1.80247 0.2519,-0.75779 0.4445,-1.00153 0.9606,-1.21751 0.7058,-0.29506 1.2475,-0.19267 1.2475,0.23567 0,0.15007 -0.1899,0.91945 -0.4227,1.70944 -0.3507,1.19195 -0.379,1.48633 -0.1695,1.73893 0.6538,0.78779 1.3069,0.18793 1.8392,-1.68932 0.2541,-0.89471 0.4237,-1.16252 0.8433,-1.32654 2.6182,-1.02134 5.4648,-3.68617 5.4648,-5.11389 0,-0.17206 -0.2666,-0.58007 -0.5932,-0.90588 -0.3791,-0.37912 -0.5305,-0.51512 -0.955,-0.5297 z m -1.3059,1.83246 v 0 c 0.89,-0.01 0.6835,0.58769 -0.6356,1.63091 -1.3545,1.07117 -1.8137,1.055 -1.6035,-0.0579 0.1954,-1.0338 0.4019,-1.24306 1.4474,-1.46708 0.322,-0.0691 0.5856,-0.10359 0.7912,-0.10594 z m -8.1509,1.45108 c 0.3156,0 0.1599,1.29595 -0.1938,1.61591 v 0 c -0.3624,0.32729 -0.8405,0.41759 -1.0594,0.19794 -0.2351,-0.23429 0.8564,-1.81436 1.2532,-1.81436 z"
       style="fill:#0c64c9;fill-opacity:1;stroke-width:0.73216"
       id="path1261"
       inkscape:label="AP" />
    <path
       style="fill:#0c64c9;fill-opacity:1;stroke-width:0.732159"
       d="m 1279.2353,203.45397 c -1.7132,-0.79805 -2.2374,-2.3063 -1.4423,-4.15207 0.9672,-2.25066 4.3117,-4.03859 5.5995,-2.99526 0.6128,0.49567 0.432,0.74241 -1.0243,1.39622 -1.4723,0.66114 -2.3011,1.34644 -2.7346,2.26018 -0.47,0.98915 -0.2035,1.45919 1.1349,2.00245 1.208,0.49055 1.5148,0.98329 0.9811,1.57415 -0.454,0.50006 -1.3187,0.47077 -2.5143,-0.0857 z"
       id="path1259"
       inkscape:label="C" />
    <path
       style="fill:#0c64c9;fill-opacity:1;stroke-width:0.732159"
       d="m 1267.367,206.51586 c -0.593,-0.41952 -0.5103,-1.24467 0.156,-1.56242 0.2665,-0.1274 1.0514,-0.33314 1.744,-0.45834 2.4242,-0.43783 5.7211,-2.13058 5.579,-2.8664 -0.034,-0.17938 -0.4385,-0.53374 -0.8983,-0.78707 -1.5222,-0.83979 -1.509,-1.9966 0.035,-3.13218 1.0104,-0.74314 2.7536,-1.32081 3.0604,-1.01331 0.3514,0.35144 0.062,0.75486 -1.0609,1.47238 -1.5244,0.97597 -1.5273,0.99573 -0.2768,1.92704 1.0741,0.80098 1.2154,1.17512 0.8296,2.18696 -0.5096,1.33399 -2.8013,2.86787 -5.7182,3.82699 -2.1064,0.69263 -2.9111,0.78708 -3.4499,0.40635 z"
       id="path1263"
       inkscape:label="S" />
    <path
       d="m 1268.2643,196.9447 c -1.2395,0.004 -1.9686,0.12787 -3.1481,0.53276 -1.7719,0.60844 -2.1834,1.03912 -1.5157,1.5875 0.2394,0.19624 0.4357,0.4495 0.4357,0.56224 0,0.11202 -0.4265,1.49294 -0.9493,3.06856 -1.2688,3.82847 -1.3004,4.00394 -0.8062,4.49739 0.2196,0.22039 0.4764,0.4005 0.5716,0.4005 0.481,0 1.0779,-0.83093 1.4681,-2.04484 0.4225,-1.31204 0.4627,-1.36189 1.6144,-2.004 2.8071,-1.56536 4.7275,-3.41093 4.9991,-4.80643 0.1018,-0.52056 0.026,-0.7168 -0.4671,-1.21028 -0.563,-0.56301 -0.6606,-0.58841 -2.2025,-0.5834 z m -0.4397,1.54977 c 0.5709,0.005 1.0804,0.073 1.1591,0.19997 0.175,0.28408 -0.3857,0.8659 -1.6919,1.75546 v 0 c -1.5902,1.08286 -1.8286,0.99028 -1.6061,-0.62633 0.1091,-0.79221 0.2227,-1.00502 0.6108,-1.15289 0.3247,-0.12338 0.9572,-0.18084 1.5281,-0.17571 z"
       style="fill:#0c64c9;fill-opacity:1;stroke-width:0.73216"
       id="path1265"
       inkscape:label="P" />
    <path
       style="fill:#0c64c9;fill-opacity:1;stroke-width:0.732159"
       d="m 1251.5809,208.05193 c -0.7365,-0.73582 1.0346,-6.13183 2.5956,-7.90951 1.025,-1.1678 2.4988,-0.72996 2.4988,0.74314 0,1.03967 0.2241,1.88897 0.4832,1.82527 0.1296,-0.0315 0.9248,-0.97157 1.7653,-2.08958 0.984,-1.30764 1.7191,-2.09764 2.0625,-2.21698 0.7109,-0.24674 1.0103,0.071 0.9715,1.03161 -0.041,1.02722 -1.711,5.87192 -2.1305,6.17943 -0.6348,0.46565 -1.1005,0.21086 -1.326,-0.7263 l -0.2086,-0.86395 -0.4694,0.56303 c -1.3171,1.57707 -1.5756,1.70227 -2.3048,1.11142 -0.2958,-0.23942 -0.4642,-0.65382 -0.5542,-1.36182 -0.2197,-1.73082 -0.4891,-1.45187 -1.9249,1.99367 -0.6663,1.59977 -1.0851,2.09397 -1.4585,1.72057 z"
       id="path1267"
       inkscape:label="M" />
    <path
       style="fill:#0c64c9;fill-opacity:1;stroke-width:0.732159"
       d="m 1247.803,209.10405 c -0.41,-0.41001 -0.2533,-1.27616 0.7117,-3.92218 1.2322,-3.37965 1.7235,-4.27215 2.3524,-4.27215 0.768,0 0.6824,0.66041 -0.5616,4.33438 -1.3362,3.94634 -1.7615,4.60162 -2.5025,3.85995 z"
       id="path1269"
       inkscape:label="I" />
  </g>
  <g
     inkscape:groupmode="layer"
     transform="translate(-1021.6732,-99.486244)"
     id="art">
    <path
       inkscape:label="T"
       id="path1307"
       d="m 1297.6067,244.37947 c -3.0627,-1.17804 -4.3454,-5.27008 -3.3643,-10.73125 0.6619,-3.6813 1.5514,-6.34197 3.879,-11.60253 0.6552,-1.48116 1.1509,-2.79758 1.1011,-2.92717 -0.05,-0.12886 -0.4554,-0.29287 -0.902,-0.36462 -1.6656,-0.2665 -2.3429,-0.97743 -2.0478,-2.15035 0.1479,-0.59085 0.9174,-0.99573 3.5048,-1.84211 1.0653,-0.34851 2.0391,-0.71459 2.1643,-0.8127 0.1252,-0.0988 0.8141,-1.24027 1.5302,-2.5362 1.6444,-2.97256 2.7698,-4.72974 4.0569,-6.33317 1.9878,-2.47617 2.9293,-2.94182 4.4683,-2.21112 1.5405,0.73069 1.8151,2.40148 0.8391,5.11266 -0.9957,2.76757 -1.0323,2.90228 -0.8347,3.09997 0.1179,0.11787 2.0171,-0.34412 5.2159,-1.2703 8.2266,-2.38098 7.7258,-2.26237 8.5963,-2.02808 1.6803,0.45174 2.5091,2.02735 1.7989,3.41772 -0.4978,0.97597 -0.9298,1.35156 -1.9805,1.72277 -0.902,0.31775 -9.6798,2.73754 -13.6511,3.76183 -1.2783,0.33021 -2.6489,0.68823 -3.0457,0.79732 -0.6853,0.18744 -0.7805,0.31849 -1.9117,2.66067 -3.1044,6.4225 -5.0651,11.48831 -5.7753,14.91628 -0.6809,3.28739 -0.4971,3.66885 1.2095,2.49373 2.5919,-1.785 6.7798,-6.69047 8.8306,-10.34541 1.5339,-2.73315 1.6181,-2.84077 2.4015,-3.09776 1.364,-0.44808 2.6504,0.48103 2.6504,1.91386 0,1.36182 -2.6431,6.05569 -5.6764,10.08183 -3.8629,5.12731 -7.1107,7.83191 -10.1697,8.46816 -1.3669,0.28407 -1.7008,0.26211 -2.8876,-0.19403 z"
       style="fill:#543e96;fill-opacity:1;stroke-width:0.732159" />
    <path
       inkscape:label="R"
       d="m 1276.4479,212.61697 c -0.4754,0.002 -0.9893,0.20076 -1.5359,0.59686 -0.6713,0.48615 -1.0136,1.01096 -2.0474,3.14813 -1.3091,2.70313 -2.5182,5.8244 -4.3852,11.31559 -0.6224,1.8304 -1.4864,4.03312 -1.9198,4.89634 -2.6219,5.21444 -5.8162,15.15738 -5.8162,18.10432 0,0.95034 0.4771,2.10947 1.1002,2.67323 1.4965,1.35376 3.8403,1.00381 4.9144,-0.73433 0.2292,-0.37048 1.0946,-2.74152 1.9234,-5.26893 l 1.5079,-4.59558 0.5953,-0.06 c 0.7981,-0.0805 1.3566,0.24872 1.5074,0.88936 0.4335,1.84578 2.8101,4.9728 5.1486,6.77684 1.3113,1.01184 3.9927,2.43886 5.703,3.03703 1.5141,0.52862 3.9212,1.04638 5.95,1.27847 v 0 c 1.7916,0.20574 6.4527,0.047 8.9984,-0.30592 4.5702,-0.63332 9.2047,-1.95422 14.3371,-4.08554 4.5533,-1.89116 6.0236,-2.83784 6.6678,-4.29483 0.6436,-1.45554 0.019,-3.18845 -1.4138,-3.91914 -1.2052,-0.61501 -1.9098,-0.50018 -4.1114,0.67128 -3.5627,1.89556 -8.5867,3.75373 -12.5367,4.63744 -8.9609,2.00319 -16.1756,1.1624 -20.7362,-2.41639 -1.7601,-1.38085 -3.8659,-3.32548 -3.8659,-3.56929 0,-0.12666 0.8071,-0.68819 1.7926,-1.24902 4.5182,-2.56988 8.1869,-5.31522 11.3864,-8.51989 3.4704,-3.47555 5.4087,-6.91402 5.4157,-9.6113 0.01,-2.29092 -1.4978,-4.41312 -3.7806,-5.33198 -1.0492,-0.42244 -1.4265,-0.46523 -4.0623,-0.45423 -2.6438,0.0117 -3.0547,0.0623 -4.5527,0.55655 -0.9057,0.29799 -2.2454,0.84406 -2.9776,1.21233 -1.7133,0.86102 -1.8347,0.75086 -1.3984,-1.26917 0.4027,-1.86334 0.2769,-2.74083 -0.5043,-3.52278 -0.3928,-0.39243 -0.8295,-0.58733 -1.3049,-0.5855 z m 11.1249,9.31623 c 0.4142,4e-5 0.7544,0.0366 0.9529,0.11265 0.5367,0.20574 0.334,0.97163 -0.6449,2.43448 -2.2126,3.30936 -7.7259,7.83256 -13.0633,10.71872 v -0.001 c -1.5866,0.85808 -2.1385,1.0264 -2.3332,0.71158 -0.1626,-0.26285 1.0468,-3.91806 1.5761,-4.76663 2.8752,-4.60309 7.0714,-7.96488 11.1415,-8.92401 0.7852,-0.18532 1.6805,-0.28584 2.3709,-0.28577 z"
       style="fill:#543e96;fill-opacity:1;stroke-width:0.73216"
       id="path1309" />
    <path
       inkscape:label="A"
       d="m 1261.8384,212.67227 c -0.9996,-0.017 -2.1241,0.43823 -3.2308,1.43815 -2.3458,2.11887 -7.4157,9.96633 -13.4999,20.89382 -1.602,2.87664 -3.1848,5.77399 -3.5187,6.43733 -0.3338,0.66407 -0.8024,1.33276 -1.0418,1.48725 -1.0602,0.68456 -10.0482,2.42533 -15.0606,2.91662 -3.8621,0.37924 -4.4599,0.52529 -5.2126,1.27795 -0.7856,0.7856 -0.9441,1.70613 -0.4558,2.64842 0.7988,1.53973 2.2758,1.82944 6.7536,1.32498 1.5881,-0.17864 4.5421,-0.65716 6.5666,-1.0635 2.7265,-0.54697 3.7409,-0.68257 3.9129,-0.52296 0.1779,0.16547 -0.1027,0.96709 -1.201,3.4308 -1.6634,3.73181 -2.3493,5.86123 -2.1487,6.66367 0.076,0.30165 0.4292,0.83893 0.785,1.19476 0.5703,0.56962 0.7688,0.6475 1.6686,0.6475 0.9526,0 1.074,-0.0564 1.8113,-0.83612 0.4854,-0.51398 1.527,-2.24958 2.7058,-4.50463 a 535.88851,535.88851 0 0 1 3.4669,-6.5195 c 1.4168,-2.60283 1.612,-2.87168 2.249,-3.07888 0.3836,-0.12448 1.9955,-0.78718 3.5807,-1.47175 2.1313,-0.92106 2.9387,-1.1884 3.099,-1.02733 0.1603,0.16108 -0.1476,1.67096 -1.1792,5.77691 -1.736,6.90499 -1.7129,6.76947 -1.3219,7.70444 0.8749,2.0947 3.1222,2.76242 4.8157,1.42989 1.1363,-0.89323 2.0563,-3.67191 4.3956,-13.26173 3.1805,-13.04341 5.4196,-24.69915 5.4203,-28.2267 0,-2.9732 -1.4515,-4.72704 -3.36,-4.75939 z m -5.1273,15.25694 c 0.1169,0.005 0.1576,0.20172 0.1576,0.54622 0,0.63772 -1.8325,8.9461 -2.1503,9.74928 -0.172,0.43491 -0.5187,0.60989 -2.3915,1.21026 v 0.001 c -2.5259,0.80977 -2.4101,0.79065 -2.5565,0.40773 -0.1149,-0.29872 0.9225,-2.25066 3.9595,-7.45485 1.886,-3.23216 2.6824,-4.47244 2.9812,-4.45967 z"
       style="fill:#543e96;fill-opacity:1;stroke-width:0.73216"
       id="path1311" />
  </g>
  <g
     inkscape:groupmode="layer"
     transform="translate(-1021.6732,-99.486244)"
     id="week">
    <path
       inkscape:label="EK"
       d="m 1313.6337,258.07724 c -1.0635,0.033 -3.2214,1.01708 -8.9948,3.89227 -3.917,1.95048 -5.66,2.72763 -5.8027,2.58486 -0.1428,-0.14277 -0.1329,-0.45103 0.033,-1.02578 0.79,-2.74999 0.8679,-3.22162 0.6263,-3.80442 -0.3382,-0.81782 -0.8345,-1.20061 -1.7058,-1.31775 -0.6538,-0.0879 -0.8571,-0.0155 -1.4692,0.52194 -0.9627,0.84564 -2.072,3.1552 -3.3935,7.06933 l -1.0915,3.23443 -1.6815,0.64699 c -3.2274,1.24248 -5.9893,1.40738 -7.8197,0.46509 -0.984,-0.50665 -1.8847,-1.5599 -1.7141,-2.00505 0.064,-0.16547 0.6684,-0.28768 1.7813,-0.36018 2.7068,-0.17792 5.4081,-1.32509 6.6828,-2.84066 1.5829,-1.88092 1.0211,-4.47634 -1.2413,-5.72833 -0.965,-0.53451 -1.1926,-0.57826 -2.9915,-0.57826 -1.8568,0 -2.0148,0.0336 -3.4045,0.72037 -5.1156,2.52814 -6.6232,9.12702 -2.884,12.62455 2.4234,2.26676 5.8603,2.81292 9.882,1.57045 2.3774,-0.73436 2.3566,-0.73706 2.6619,0.3297 0.1603,0.56083 0.4861,1.09946 0.8485,1.40404 v 10e-4 a 2.2125849,2.2125849 0 0 0 2.9053,-0.0517 c 0.5242,-0.46858 0.7009,-0.8952 1.2537,-3.03238 0.3529,-1.36766 0.7253,-2.5702 0.8278,-2.6727 0.1179,-0.11788 0.526,-0.0752 1.1235,0.1173 2.0215,0.65309 5.5941,1.02232 11.7853,1.21854 5.1837,0.16472 6.1597,0.0535 7.012,-0.79944 0.7219,-0.72191 0.8319,-1.48853 0.3472,-2.42569 -0.5293,-1.02503 -0.7073,-1.0544 -6.9716,-1.1591 -6.6634,-0.11056 -6.7663,-0.14517 -4.3589,-1.45573 a 2345.4491,2345.4491 0 0 1 3.9382,-2.13785 c 2.6702,-1.44601 4.3773,-2.79624 4.7873,-3.78685 0.2358,-0.56815 0.221,-0.64562 -0.1788,-0.96997 -0.2048,-0.16565 -0.4377,-0.26007 -0.7922,-0.24908 z m -27.9404,4.17184 c 0.7524,0.0174 1.202,0.30368 1.202,0.82993 0,0.65162 -1.0078,1.38797 -2.6551,1.94148 -1.6606,0.55723 -3.0791,0.77707 -3.2489,0.50178 -0.4086,-0.66187 1.5049,-2.54902 3.052,-3.00809 0.6378,-0.18944 1.1985,-0.27552 1.65,-0.2651 z"
       style="fill:#543e96;fill-opacity:1;stroke-width:0.73216"
       id="path1327" />
    <path
       inkscape:label="E"
       d="m 1269.6116,258.01937 c -0.88,0.0189 -1.8053,0.23897 -2.729,0.67799 -1.6547,0.78634 -2.6419,1.70615 -3.9817,3.70934 -1.9812,2.96085 -2.8303,5.76559 -2.7073,8.9395 0.056,1.45773 0.1702,2.03579 0.5751,2.90267 0.8435,1.8055 2.1761,2.87192 4.0943,3.2768 1.1495,0.24235 3.4091,0.0537 4.9445,-0.41341 1.8238,-0.55424 4.0614,-1.65536 4.3103,-2.12029 0.336,-0.62819 0.1471,-1.39355 -0.4232,-1.71203 -0.4767,-0.26578 -0.6071,-0.24355 -1.8408,0.31729 -3.294,1.4958 -6.3778,1.22747 -7.151,-0.6227 -0.347,-0.831 -0.3656,-2.49784 -0.031,-2.77606 0.1743,-0.14426 0.8609,-0.14876 2.2769,-0.0155 2.4015,0.22697 4.8428,-0.0101 5.9557,-0.57826 2.5413,-1.29592 3.1901,-4.26669 1.7653,-8.07392 -0.8583,-2.29335 -2.8092,-3.55983 -5.0581,-3.51142 z m 0.3545,4.0535 c 0.2361,-0.006 0.4562,0.0411 0.6527,0.14624 0.6077,0.32508 1.1572,1.67143 1.1622,2.84582 0.01,1.45699 -0.2222,1.61086 -2.3828,1.61386 -0.9775,0.002 -2.0823,0.0426 -2.4557,0.091 -1.397,0.18158 -1.4983,-0.28922 -0.4191,-1.95854 1.088,-1.68351 2.4196,-2.71243 3.4427,-2.73833 z"
       style="fill:#543e96;fill-opacity:1;stroke-width:0.73216"
       id="path1329" />
    <path
       inkscape:label="W"
       id="path1331"
       d="m 1237.7871,282.23796 c -0.711,-0.18451 -1.6467,-1.27835 -1.9417,-2.27262 -0.3734,-1.25566 -0.3661,-4.17331 0.016,-6.91232 0.3778,-2.70899 1.5229,-7.31427 2.1481,-8.6424 1.1041,-2.34291 3.6154,-2.5157 4.3461,-0.30019 0.2541,0.76877 0.1948,1.24467 -0.6245,5.03506 -0.328,1.51703 -0.5396,2.90667 -0.4701,3.08605 0.115,0.30018 0.156,0.29652 0.4913,-0.0469 0.2014,-0.205 1.2549,-1.89995 2.3422,-3.76403 2.3502,-4.0342 2.8825,-4.82932 3.6784,-5.49851 0.6867,-0.57841 1.64,-0.66627 2.4849,-0.22917 1.069,0.55278 1.0829,0.61355 1.1868,5.3206 0.081,3.67105 0.1428,4.37831 0.3808,4.37831 0.3653,0 1.1312,-1.83918 2.9982,-7.19273 1.1861,-3.40161 1.5909,-4.3417 2.0544,-4.76928 0.7673,-0.70727 1.5434,-0.69848 2.3561,0.0285 0.5067,0.45174 0.6274,0.70653 0.6223,1.30764 -0.01,1.04991 -3.2874,9.88707 -4.9955,13.46221 -1.7557,3.67544 -3.1285,4.77587 -5.0504,4.04518 -1.036,-0.39391 -1.755,-2.28214 -1.9944,-5.23494 -0.208,-2.56988 -0.4957,-2.52815 -2.0274,0.28993 -2.3444,4.31535 -3.8987,6.53379 -5.1485,7.34795 -0.7241,0.47224 -2.1284,0.74827 -2.8525,0.56084 z"
       style="fill:#543e96;fill-opacity:1;stroke-width:0.732159" />
  </g>
  <g
     inkscape:label="ornament"
     sodipodi:insensitive="true"
     transform="translate(-1021.6732,-99.486244)"
     id="orn">
    <path
       inkscape:label="orange"
       d="m 1251.4448,292.66171 c -0.883,-0.19695 -1.7462,-0.65675 -2.2236,-1.18464 -0.5572,-0.61501 -0.511,-1.78061 0.097,-2.44101 1.3852,-1.50459 4.0891,-1.96585 16.9458,-2.88984 2.3437,-0.16839 6.1355,-0.47444 8.4272,-0.6809 14.1965,-1.27469 17.4627,-1.47823 26.4419,-1.64297 10.3205,-0.1889 16.6456,-1.1429 20.8241,-3.14096 1.8706,-0.89324 4.3234,-3.27349 5.1156,-4.96477 1.5199,-3.24347 1.6202,-7.45338 0.5044,-21.24214 -0.2958,-3.65493 -0.943,-13.01413 -1.1663,-16.85503 -0.1142,-1.97097 -0.3419,-4.86886 -0.5052,-6.43934 l -0.2987,-2.85542 0.4517,-0.80831 c 0.5894,-1.05504 1.2769,-1.54339 2.318,-1.64589 1.1861,-0.11715 2.2587,0.5213 2.8152,1.67591 0.3939,0.81709 0.4246,1.20221 0.4839,6.19846 0.035,2.9301 -0.01,12.21388 -0.094,20.63078 -0.1727,16.68371 -0.2767,18.42625 -1.2776,21.34683 -2.1408,6.24679 -8.113,10.60167 -17.3543,12.65318 -4.0284,0.89396 -6.3662,1.13118 -13.3663,1.35449 -3.6228,0.11495 -8.2427,0.33533 -10.2671,0.48908 -5.4971,0.41734 -12.8867,1.04406 -13.657,1.15828 -0.3734,0.0549 -4.2956,0.36242 -8.7171,0.68237 -8.5897,0.62234 -14.3964,0.84784 -15.4976,0.60184 z m -21.9092,-53.51132 c -1.0506,-1.05065 -2.028,-4.47203 -2.2367,-7.82605 -0.1501,-2.40953 0.2892,-4.35415 1.5844,-7.01628 1.6012,-3.29178 3.9097,-4.96404 7.6957,-5.57246 1.0338,-0.1662 2.0025,-0.34924 2.1518,-0.40708 0.4774,-0.18304 1.651,0.45613 2.0552,1.11874 0.4898,0.80318 0.492,1.25053 0.012,2.03906 -0.4642,0.76145 -1.4101,1.3728 -3.7435,2.42198 -2.1094,0.94815 -2.6248,1.37866 -3.3958,2.83639 -1.1282,2.13278 -1.4043,3.46604 -1.5082,7.2923 -0.115,4.16379 -0.1779,4.65361 -0.6685,5.14342 -0.4971,0.49787 -1.4328,0.48323 -1.9461,-0.03 z"
       fill="#fd8225"
       id="path1341"
       style="display:inline;fill:#fd8225;fill-opacity:1;stroke-width:0.732159" />
    <path
       inkscape:label="dot"
       d="m 1241.8557,292.74883 c -1.8041,-0.80171 -2.2587,-2.83565 -0.9401,-4.21137 0.7263,-0.75852 1.5924,-1.01331 2.5603,-0.75266 2.5245,0.68017 2.5326,4.32559 0.01,5.04897 -0.8258,0.23648 -0.9188,0.23136 -1.6305,-0.0849 z m 85.8734,-71.2054 c -1.4328,-0.43197 -2.2843,-1.59318 -2.2843,-3.11461 0,-1.59244 1.1129,-2.89422 2.7207,-3.18489 1.4446,-0.26065 3.3138,1.0587 3.5905,2.53401 0.2673,1.42331 -0.5659,2.9667 -1.9373,3.58904 -0.8522,0.38804 -1.2717,0.42246 -2.0896,0.17572 z"
       fill="#3ba95a"
       id="path1343"
       style="fill:#3ba95a;fill-opacity:1;stroke-width:0.732159" />
  </g>
</svg>
