<?xml version="1.0" encoding="UTF-8" standalone="no"?>
<svg
   xmlns:dc="http://purl.org/dc/elements/1.1/"
   xmlns:cc="http://creativecommons.org/ns#"
   xmlns:rdf="http://www.w3.org/1999/02/22-rdf-syntax-ns#"
   xmlns:svg="http://www.w3.org/2000/svg"
   xmlns="http://www.w3.org/2000/svg"
   xmlns:sodipodi="http://sodipodi.sourceforge.net/DTD/sodipodi-0.dtd"
   xmlns:inkscape="http://www.inkscape.org/namespaces/inkscape"
   inkscape:version="1.0 (4035a4fb49, 2020-05-01)"
   sodipodi:docname="gnome-id.svg"
   id="svg21"
   version="1.1"
   viewBox="0 0 47.625 47.625"
   height="180"
   width="180">
  <metadata
     id="metadata25">
    <rdf:RDF>
      <cc:Work
         rdf:about="">
        <dc:format>image/svg+xml</dc:format>
        <dc:type
           rdf:resource="http://purl.org/dc/dcmitype/StillImage" />
        <dc:title />
      </cc:Work>
    </rdf:RDF>
  </metadata>
  <sodipodi:namedview
     inkscape:current-layer="svg21"
     inkscape:window-maximized="1"
     inkscape:window-y="30"
     inkscape:window-x="1920"
     inkscape:cy="126.63846"
     inkscape:cx="77.42218"
     inkscape:zoom="2.5455844"
     showgrid="false"
     id="namedview23"
     inkscape:window-height="1042"
     inkscape:window-width="1920"
     inkscape:pageshadow="2"
     inkscape:pageopacity="0"
     guidetolerance="10"
     gridtolerance="10"
     objecttolerance="10"
     borderopacity="1"
     bordercolor="#666666"
     pagecolor="#cacaca"
     inkscape:document-rotation="0"
     inkscape:pagecheckerboard="false" />
  <defs
     id="defs7">
    <linearGradient
       id="a">
      <stop
         id="stop2"
         stop-color="#2f90fb"
         offset="0" />
      <stop
         id="stop4"
         stop-color="#1d7ee9"
         offset="1" />
    </linearGradient>
    <clipPath
       id="a-3">
      <path
         d="M299.55 306.48h48.113v-48.984H299.55z"
         clip-rule="evenodd"
         id="path52" />
    </clipPath>
    <clipPath
       id="b">
      <path
         d="M0 0h612v792H0z"
         id="path55" />
    </clipPath>
    <clipPath
       id="c">
      <path
         d="M299.55 306.48h48.113v-48.984H299.55z"
         clip-rule="evenodd"
         id="path58" />
    </clipPath>
    <clipPath
       id="d">
      <path
         d="M0 0h612v792H0z"
         id="path61" />
    </clipPath>
  </defs>
  <rect
     ry="0"
     rx="0"
     y="-0.0019371717"
     x="0.0028571442"
     height="47.62532"
     width="47.62532"
     fill="none"
     paint-order="markers fill stroke"
     id="rect9"
     style="fill:none;stroke-width:0.29867;stroke:none" />
  <g
     id="g42"
     transform="matrix(0.0422179,0,0,0.0422179,-0.33177986,15.189777)"
     style="fill:#306db3;fill-opacity:1;stroke-width:13.1188">
    <g
       id="g15043"
       style="fill:#306db3;fill-opacity:1;fill-rule:nonzero;stroke:none;stroke-width:13.1188;stroke-miterlimit:4"
       transform="matrix(3.1536648,0,0,3.1536648,17.726325,17.725004)">
      <g
         id="g15045"
         style="fill:#306db3;fill-opacity:1;stroke-width:13.1188">
        <path
           inkscape:connector-curvature="0"
           id="path15047"
           style="fill:#306db3;fill-opacity:1;stroke-width:13.1188"
           d="M 86.068,0 C 61.466,0 56.851,35.041 70.691,35.041 84.529,35.041 110.671,0 86.068,0 Z" />
        <path
           inkscape:connector-curvature="0"
           id="path15049"
           style="fill:#306db3;fill-opacity:1;stroke-width:13.1188"
           d="M 45.217,30.699 C 52.586,31.149 60.671,2.577 46.821,4.374 32.976,6.171 37.845,30.249 45.217,30.699 Z" />
        <path
           inkscape:connector-curvature="0"
           id="path15051"
           style="fill:#306db3;fill-opacity:1;stroke-width:13.1188"
           d="M 11.445,48.453 C 16.686,46.146 12.12,23.581 3.208,29.735 -5.7,35.89 6.204,50.759 11.445,48.453 Z" />
        <path
           inkscape:connector-curvature="0"
           id="path15053"
           style="fill:#306db3;fill-opacity:1;stroke-width:13.1188"
           d="M 26.212,36.642 C 32.451,35.37 32.793,9.778 21.667,14.369 10.539,18.961 19.978,37.916 26.212,36.642 Z" />
        <path
           inkscape:connector-curvature="0"
           id="path15055"
           style="fill:#306db3;fill-opacity:1;stroke-width:13.1188"
           d="m 58.791,93.913 c 1.107,8.454 -6.202,12.629 -13.36,7.179 C 22.644,83.743 83.16,75.088 79.171,51.386 75.86,31.712 15.495,37.769 8.621,68.553 3.968,89.374 27.774,118.26 52.614,118.26 c 12.22,0 26.315,-11.034 28.952,-25.012 C 83.58,82.589 57.867,86.86 58.791,93.913 Z" />
      </g>
    </g>
    <g
       style="fill:#306db3;fill-opacity:1;stroke-width:13.1188"
       transform="matrix(1.293235,0,0,1.293235,-4715.4517,-1450.7766)"
       id="g15057">
      <path
         inkscape:connector-curvature="0"
         id="path15059"
         style="font-style:normal;font-variant:normal;font-weight:bold;font-stretch:normal;font-size:148.7px;line-height:125%;font-family:'Bitstream Vera Sans';text-align:start;writing-mode:lr-tb;text-anchor:start;fill:#306db3;fill-opacity:1;stroke:none;stroke-width:13.1188pt;stroke-linecap:butt;stroke-linejoin:miter;stroke-opacity:1"
         d="m 4176.2963,1214.4401 c -15.1078,0.4069 -27.0386,5.8367 -35.8126,16.25 -9.0861,10.8369 -13.6562,25.8104 -13.6562,44.9063 0,19.0432 4.5703,33.9757 13.6562,44.8124 9.1305,10.8369 21.6664,16.25 37.6563,16.25 16.034,0 28.6014,-5.4131 37.6875,-16.25 9.0859,-10.8367 13.6251,-25.7692 13.625,-44.8124 -1e-4,-19.0959 -4.5391,-34.0694 -13.625,-44.9063 -9.0861,-10.8366 -21.6536,-16.2499 -37.6875,-16.25 -0.6246,0 -1.2296,-0.016 -1.8437,0 z m 1.125,22 c 0.2415,-0.01 0.4737,0 0.7187,0 7.8833,10e-5 13.9919,3.4114 18.3125,10.25 4.3203,6.8388 6.4999,16.4913 6.5,28.9063 0,12.3623 -2.1799,21.9427 -6.5,28.7812 -4.3204,6.8389 -10.4293,10.2812 -18.3125,10.2812 -7.8391,0 -13.8983,-3.4423 -18.2187,-10.2812 -4.3204,-6.8385 -6.4999,-16.4189 -6.5,-28.7812 0,-12.4149 2.1798,-22.0675 6.5,-28.9063 4.1852,-6.6249 10.0123,-10.0428 17.5,-10.25 z" />
      <path
         inkscape:connector-curvature="0"
         id="path15061"
         style="font-style:normal;font-variant:normal;font-weight:bold;font-stretch:normal;font-size:148.7px;line-height:125%;font-family:'Bitstream Vera Sans';text-align:start;writing-mode:lr-tb;text-anchor:start;fill:#306db3;fill-opacity:1;stroke:none;stroke-width:13.1188pt;stroke-linecap:butt;stroke-linejoin:miter;stroke-opacity:1"
         d="m 4005.6293,1325.612 c -13.3076,11.1757 -33.1067,11.0472 -41.3549,11.0472 -16.6133,0 -29.7747,-5.471 -39.4842,-16.413 -9.7097,-10.9946 -14.5644,-25.8819 -14.5644,-44.6622 0,-18.9906 4.9438,-33.9305 14.8316,-44.82 9.8878,-10.8892 23.4277,-16.3339 40.62,-16.334 6.6363,10e-5 12.9831,0.7366 19.0406,2.2094 6.1019,1.473 11.8475,3.6562 17.2368,6.5494 l -6.921,20.4608 c -3.0298,-1.6586 -6.4987,-3.2932 -9.7145,-4.4424 -5.4784,-1.8411 -10.979,-2.7617 -16.5018,-2.7618 -10.2442,10e-5 -18.15,3.3932 -23.7173,10.1792 -5.523,6.7336 -8.2844,16.3867 -8.2844,28.9594 0,12.4676 2.6723,22.0945 8.0172,28.8806 5.3446,6.7861 13.3768,10.1791 22.7818,10.1791 9.5548,0 15.4728,-2.4084 18.6291,-4.9461 v -20.3835 h -20.7001 v -20.3584 h 40.0855" />
      <path
         inkscape:connector-curvature="0"
         id="path15063"
         style="font-style:normal;font-variant:normal;font-weight:bold;font-stretch:normal;font-size:148.7px;line-height:125%;font-family:'Bitstream Vera Sans';text-align:start;writing-mode:lr-tb;text-anchor:start;fill:#306db3;fill-opacity:1;stroke:none;stroke-width:13.1188pt;stroke-linecap:butt;stroke-linejoin:miter;stroke-opacity:1"
         d="m 4023.2108,1216.5605 h 16.2279 l 51.2775,70.8022 v -70.8022 h 21.8853 v 117.8103 h -16.2279 l -51.2774,-70.8022 v 70.8022 h -21.8854 v -117.8103" />
      <path
         inkscape:connector-curvature="0"
         id="path15065"
         style="font-style:normal;font-variant:normal;font-weight:bold;font-stretch:normal;font-size:148.7px;line-height:125%;font-family:'Bitstream Vera Sans';text-align:start;writing-mode:lr-tb;text-anchor:start;fill:#306db3;fill-opacity:1;stroke:none;stroke-width:13.1188pt;stroke-linecap:butt;stroke-linejoin:miter;stroke-opacity:1"
         d="m 4246.3361,1216.5605 h 32.7366 l 22.7151,73.5479 22.8487,-73.5479 h 27.6698 l 12.5,117.8103 h -24.3186 l -7.5,-73.668 -22.9823,74.0213 h -16.3015 l -22.9824,-76.5213 -7.5,76.168 h -24.3854 l 12.5,-117.8103" />
      <path
         inkscape:connector-curvature="0"
         id="path15067"
         style="font-style:normal;font-variant:normal;font-weight:bold;font-stretch:normal;font-size:148.7px;line-height:125%;font-family:'Bitstream Vera Sans';text-align:start;writing-mode:lr-tb;text-anchor:start;fill:#306db3;fill-opacity:1;stroke:none;stroke-width:13.1188pt;stroke-linecap:butt;stroke-linejoin:miter;stroke-opacity:1"
         d="m 4382.3597,1216.5605 h 69.4147 v 22.9624 h -43.6933 v 24.4365 h 33.5877 v 20.4623 h -33.5877 v 26.9868 h 45.1631 v 22.9623 h -70.8845 v -117.8103" />
      <text
         xml:space="preserve"
         id="text15069"
         style="font-style:normal;font-weight:normal;font-size:30.6896px;font-family:'Bitstream Vera Sans';fill:#306db3;fill-opacity:1;stroke:none;stroke-width:13.1188pt;stroke-linecap:butt;stroke-linejoin:miter;stroke-opacity:1"
         y="1215.743"
         x="4474.6182"><tspan
           id="tspan15072"
           style="letter-spacing:11.0626;fill:#306db3;fill-opacity:1;stroke-width:13.1188pt"
           y="1215.743"
           x="4474.6182"><tspan
             id="tspan15074"
             style="letter-spacing:0.252382;fill:#306db3;fill-opacity:1;stroke-width:13.1188pt">TM</tspan></tspan></text>
    </g>
    <text
       id="text61"
       y="352.47379"
       x="633.52771"
       style="font-style:normal;font-variant:normal;font-weight:bold;font-stretch:normal;font-size:72.9088px;line-height:75.1872px;font-family:'Open Sans';-inkscape-font-specification:'Open Sans Bold';font-variant-ligatures:normal;font-variant-position:normal;font-variant-caps:normal;font-variant-numeric:normal;font-variant-alternates:normal;font-feature-settings:normal;text-indent:0;text-align:start;text-decoration:none;text-decoration-line:none;text-decoration-style:solid;text-decoration-color:#000000;letter-spacing:0px;word-spacing:0px;text-transform:none;writing-mode:lr-tb;direction:ltr;text-orientation:mixed;dominant-baseline:auto;baseline-shift:baseline;text-anchor:start;white-space:normal;shape-padding:0;opacity:1;vector-effect:none;fill:#306db3;fill-opacity:1;fill-rule:evenodd;stroke:none;stroke-width:74.3741;stroke-linecap:round;stroke-linejoin:round;stroke-miterlimit:4;stroke-dasharray:none;stroke-dashoffset:0;stroke-opacity:1;paint-order:markers stroke fill"
       xml:space="preserve"><tspan
         style="fill:#306db3;fill-opacity:1;stroke-width:74.3741"
         y="352.47379"
         x="633.52771"
         id="tspan59"
         sodipodi:role="line">INDONESIA</tspan></text>
  </g>
</svg>
