<?xml version="1.0" encoding="UTF-8" standalone="no"?>
<svg
   xmlns:dc="http://purl.org/dc/elements/1.1/"
   xmlns:cc="http://creativecommons.org/ns#"
   xmlns:rdf="http://www.w3.org/1999/02/22-rdf-syntax-ns#"
   xmlns:svg="http://www.w3.org/2000/svg"
   xmlns="http://www.w3.org/2000/svg"
   xmlns:sodipodi="http://sodipodi.sourceforge.net/DTD/sodipodi-0.dtd"
   xmlns:inkscape="http://www.inkscape.org/namespaces/inkscape"
   width="180"
   height="180"
   viewBox="0 0 47.625 47.625"
   version="1.1"
   id="svg21"
   sodipodi:docname="tokofoss.svg"
   inkscape:version="1.0 (4035a4fb49, 2020-05-01)">
  <metadata
     id="metadata25">
    <rdf:RDF>
      <cc:Work
         rdf:about="">
        <dc:format>image/svg+xml</dc:format>
        <dc:type
           rdf:resource="http://purl.org/dc/dcmitype/StillImage" />
        <dc:title />
      </cc:Work>
    </rdf:RDF>
  </metadata>
  <sodipodi:namedview
     showguides="false"
     inkscape:pagecheckerboard="false"
     inkscape:document-rotation="0"
     pagecolor="#cacaca"
     bordercolor="#666666"
     borderopacity="1"
     objecttolerance="10"
     gridtolerance="10"
     guidetolerance="10"
     inkscape:pageopacity="0"
     inkscape:pageshadow="2"
     inkscape:window-width="1920"
     inkscape:window-height="1042"
     id="namedview23"
     showgrid="false"
     inkscape:zoom="1.2727922"
     inkscape:cx="182.44403"
     inkscape:cy="78.209829"
     inkscape:window-x="1920"
     inkscape:window-y="30"
     inkscape:window-maximized="1"
     inkscape:current-layer="svg21" />
  <defs
     id="defs7">
    <linearGradient
       id="a">
      <stop
         offset="0"
         stop-color="#2f90fb"
         id="stop2" />
      <stop
         offset="1"
         stop-color="#1d7ee9"
         id="stop4" />
    </linearGradient>
  </defs>
  <rect
     style="fill:none;stroke-width:0.29867;stroke:none"
     id="rect9"
     paint-order="markers fill stroke"
     fill="none"
     width="47.62532"
     height="47.62532"
     x="0.0028571442"
     y="-0.0019371717"
     rx="0"
     ry="0" />
  <path
     d="M 3.3868139,5.8011335 V 10.212497 H 11.842202 V 33.20949 h 5.269176 V 10.212497 h 22.220927 v 10.702046 c 0,1.919938 -0.142636,4.168731 -1.674853,5.548179 -1.072399,0.965504 -2.518245,1.408747 -3.921303,1.611022 -1.99093,0.286991 -3.995609,0.274886 -6.004471,0.274886 v 4.86086 c 2.962275,0 6.039498,0.15406 8.904678,-0.736326 1.060473,-0.329554 2.094473,-0.772782 3.022723,-1.387817 0.667688,-0.442374 1.296756,-0.980112 1.814047,-1.5929 3.091719,-3.662599 2.760808,-8.338681 2.760808,-12.825983 V 5.8011335 Z M 19.807325,12.704185 V 33.20949 h 5.269174 v -9.272224 h 8.41462 v -4.3708 h -8.41462 v -2.450711 h 9.476691 v -4.41157 z m -1.792837,22.895274 c -0.161286,-6.38e-4 -0.326387,0.01161 -0.49459,0.03789 -0.435227,0.06797 -0.854382,0.221531 -1.225356,0.459997 -0.344995,0.221801 -0.623991,0.495591 -0.861518,0.82919 -1.597245,2.24312 0.459645,5.292396 3.107969,4.849123 0.405612,-0.06789 0.796535,-0.228941 1.143816,-0.447026 0.314688,-0.197658 0.590205,-0.468083 0.810453,-0.766592 1.505573,-2.040507 -0.06147,-4.952853 -2.480774,-4.962578 z m 14.170559,0 c -0.160256,-3.84e-4 -0.324244,0.01179 -0.491296,0.03789 -0.431263,0.06736 -0.858467,0.222962 -1.225356,0.459997 -0.340705,0.220125 -0.628076,0.494203 -0.856575,0.82919 -1.537078,2.253169 0.414797,5.299095 3.103232,4.849123 0.409494,-0.06854 0.79302,-0.22686 1.143612,-0.447026 0.325837,-0.204643 0.627609,-0.492924 0.849368,-0.807569 1.447596,-2.053909 -0.119156,-4.915841 -2.522985,-4.921602 z"
     style="fill:#5593ef;stroke:none;stroke-width:0.0408473"
     id="path26" />
  <path
     d=""
     id="path24"
     style="fill:#000000;stroke-width:0.102514" />
</svg>
