<svg xmlns="http://www.w3.org/2000/svg" width="180" height="180" viewBox="0 0 47.625 47.625"><defs><linearGradient id="a"><stop offset="0" stop-color="#2f90fb"/><stop offset="1" stop-color="#1d7ee9"/></linearGradient></defs><g transform="matrix(.29867 0 0 .29867 -245.5 151.637)"><rect ry="0" rx="0" y="-507.714" x="821.987" height="159.458" width="159.458" fill="none" paint-order="markers fill stroke"/><path d="M868.624-359.283c-1.206-.269-2.385-.897-3.037-1.618-.761-.84-.698-2.432.133-3.334 1.892-2.055 5.585-2.685 23.145-3.947 3.201-.23 8.38-.648 11.51-.93 19.39-1.741 23.851-2.019 36.115-2.244 14.096-.258 22.735-1.561 28.442-4.29 2.555-1.22 5.905-4.471 6.987-6.781 2.076-4.43 2.213-10.18.689-29.013-.404-4.992-1.288-17.775-1.593-23.021-.156-2.692-.467-6.65-.69-8.795l-.408-3.9.617-1.104c.805-1.441 1.744-2.108 3.166-2.248 1.62-.16 3.085.712 3.845 2.289.538 1.116.58 1.642.661 8.466.048 4.002-.01 16.682-.129 28.178-.236 22.787-.378 25.167-1.745 29.156-2.924 8.532-11.081 14.48-23.703 17.282-5.502 1.221-8.695 1.545-18.256 1.85-4.948.157-11.258.458-14.023.668-7.508.57-17.601 1.426-18.653 1.582-.51.075-5.867.495-11.906.932-11.732.85-19.663 1.158-21.167.822zM838.7-432.37c-1.435-1.435-2.77-6.108-3.055-10.689-.205-3.291.395-5.947 2.164-9.583 2.187-4.496 5.34-6.78 10.511-7.611 1.412-.227 2.735-.477 2.939-.556.652-.25 2.255.623 2.807 1.528.669 1.097.672 1.708.016 2.785-.634 1.04-1.926 1.875-5.113 3.308-2.881 1.295-3.585 1.883-4.638 3.874-1.541 2.913-1.918 4.734-2.06 9.96-.157 5.687-.243 6.356-.913 7.025-.679.68-1.957.66-2.658-.041z" fill="#fd8225"/><path d="M855.527-359.164c-2.464-1.095-3.085-3.873-1.284-5.752.992-1.036 2.175-1.384 3.497-1.028 3.448.929 3.459 5.908.014 6.896-1.128.323-1.255.316-2.227-.116zm117.288-97.254c-1.957-.59-3.12-2.176-3.12-4.254 0-2.175 1.52-3.953 3.716-4.35 1.973-.356 4.526 1.446 4.904 3.461.365 1.944-.773 4.052-2.646 4.902-1.164.53-1.737.577-2.854.24z" fill="#3ba95a"/><path d="M857.904-468.166c-.4-.293-.447-.581-.298-1.849.21-1.793.01-1.953-1.694-1.35-1.616.571-4.889.789-6.26.416-3.242-.882-4.364-4.218-2.6-7.728.985-1.963 2.41-3.537 4.903-5.42 3.485-2.63 7.299-3.972 8.2-2.887.532.641.147 1.076-1.728 1.954-5.404 2.528-9.635 6.801-9.644 9.738-.003 1.006.908 1.836 2.305 2.098 1.025.192 4.604-.423 5.803-.998 1.216-.583.964-1.134-.563-1.23-.724-.046-1.468-.21-1.654-.363-.476-.395-.419-1.118.126-1.612.528-.477 5.761-2.572 6.426-2.572.24 0 .657.243.927.54.479.53.462.638-.78 4.962-.7 2.43-1.427 4.797-1.618 5.258-.449 1.085-1.208 1.513-1.851 1.043zm5.746-5.242c-.56-.56-.346-1.743.972-5.357 1.683-4.616 2.354-5.835 3.213-5.835 1.049 0 .932.902-.767 5.92-1.825 5.39-2.406 6.285-3.418 5.272zm5.16-1.437c-1.006-1.005 1.413-8.375 3.545-10.803 1.4-1.595 3.413-.997 3.413 1.015 0 1.42.306 2.58.66 2.493.177-.043 1.263-1.327 2.411-2.854 1.344-1.786 2.348-2.865 2.817-3.028.971-.337 1.38.097 1.327 1.409-.056 1.403-2.337 8.02-2.91 8.44-.867.636-1.503.288-1.811-.992l-.285-1.18-.641.769c-1.799 2.154-2.152 2.325-3.148 1.518-.404-.327-.634-.893-.757-1.86-.3-2.364-.668-1.983-2.629 2.723-.91 2.185-1.482 2.86-1.992 2.35zm14.614-1.173c-.675-.674-.632-.914 1.101-6.143.714-2.152 1.297-4.038 1.297-4.191 0-.154-.268-.5-.595-.768-.912-.749-.35-1.337 2.07-2.168 1.611-.553 2.607-.722 4.3-.728 2.106-.007 2.239.028 3.008.797.674.674.777.942.638 1.653-.371 1.906-2.994 4.427-6.828 6.565-1.573.877-1.628.945-2.205 2.737-.533 1.658-1.348 2.793-2.005 2.793-.13 0-.481-.246-.781-.547zm6.844-9.21c1.784-1.215 2.55-2.01 2.311-2.398-.215-.347-2.783-.37-3.67-.033-.53.202-.685.493-.834 1.575-.304 2.208.021 2.334 2.193.855zm.103 8.285c-.81-.573-.697-1.7.213-2.134.364-.174 1.436-.455 2.382-.626 3.311-.598 7.814-2.91 7.62-3.915-.047-.245-.599-.729-1.227-1.075-2.079-1.147-2.061-2.727.048-4.278 1.38-1.015 3.761-1.804 4.18-1.384.48.48.084 1.031-1.449 2.011-2.082 1.333-2.086 1.36-.378 2.632 1.467 1.094 1.66 1.605 1.133 2.987-.696 1.822-3.826 3.917-7.81 5.227-2.877.946-3.976 1.075-4.712.555zm21.827-3.197c-.278-.277-.218-1.751.132-3.266.31-1.344.305-1.367-.463-1.984-.732-.588-.747-.635-.248-.816 1.988-.72 2.224-.908 3.178-2.536 2.1-3.583 4.745-6.309 6.124-6.309.32 0 .838.327 1.152.725.515.656.553.921.388 2.779l-.182 2.053h1.342c1.055 0 1.4-.11 1.615-.512.35-.653.355-1.87.009-1.87-.46 0-.286-1.221.242-1.7.709-.64 3.438-1.444 5.587-1.644 1.765-.164 1.832-.147 2.621.642.446.445.81 1.002.81 1.237 0 1.95-3.888 5.59-7.464 6.985-.573.224-.805.59-1.152 1.812-.727 2.564-1.619 3.383-2.512 2.307-.286-.345-.247-.747.232-2.375.318-1.079.577-2.13.577-2.335 0-.585-.74-.725-1.704-.322-.705.295-.968.628-1.312 1.663-.578 1.742-1.124 2.462-1.865 2.462-.75 0-1.006-.57-.784-1.753.207-1.1-.193-1.31-1.71-.902-1.026.276-1.153.429-2.475 2.982-1.335 2.575-1.737 3.079-2.139 2.677zm7.007-8.47c.483-.437.696-2.207.265-2.207-.542 0-2.033 2.158-1.712 2.478.299.3.952.177 1.447-.27zm10.53-1.961c2.218-1.754 2.133-2.586-.214-2.083-1.428.306-1.71.592-1.977 2.004-.287 1.52.34 1.542 2.19.079zm-23.154 9.446c-2.34-1.09-3.056-3.15-1.97-5.671 1.321-3.074 5.889-5.516 7.648-4.091.837.677.59 1.014-1.399 1.907-2.011.903-3.143 1.839-3.735 3.087-.642 1.351-.278 1.993 1.55 2.735 1.65.67 2.069 1.343 1.34 2.15-.62.683-1.801.643-3.434-.117zm29.38-4.59c-.292-.07-.81-.384-1.152-.697-.545-.497-.606-.74-.485-1.937.083-.818.526-2.14 1.103-3.289.65-1.294.913-2.123.808-2.54-.23-.92.807-1.794 2.896-2.44 2.057-.635 3.532-.701 4.23-.19.967.706-.201 1.757-1.954 1.757-1.297 0-2.335.519-2.673 1.336-.537 1.295-.225 1.606 1.417 1.413 2.887-.339 2.03 1.125-1.324 2.26-1.848.625-2.082.779-2.156 1.418-.078.665-.013.717.888.717.535 0 1.955-.257 3.154-.572 2.343-.614 3.053-.546 3.053.292 0 .713-1.093 1.243-4.167 2.023-2.57.652-2.721.67-3.638.449z" fill="#0c64c9"/><path d="M849.97-373.52c-.971-.252-2.249-1.746-2.652-3.104-.51-1.715-.5-5.7.022-9.441.516-3.7 2.08-9.99 2.934-11.804 1.508-3.2 4.938-3.436 5.936-.41.347 1.05.266 1.7-.853 6.877-.448 2.072-.737 3.97-.642 4.215.157.41.213.405.671-.064.275-.28 1.714-2.595 3.199-5.141 3.21-5.51 3.937-6.596 5.024-7.51.938-.79 2.24-.91 3.394-.313 1.46.755 1.479.838 1.621 7.267.111 5.014.195 5.98.52 5.98.499 0 1.545-2.512 4.095-9.824 1.62-4.646 2.173-5.93 2.806-6.514 1.048-.966 2.108-.954 3.218.039.692.617.857.965.85 1.786-.011 1.434-4.49 13.504-6.823 18.387-2.398 5.02-4.273 6.523-6.898 5.525-1.415-.538-2.397-3.117-2.724-7.15-.284-3.51-.677-3.453-2.769.396-3.202 5.894-5.325 8.924-7.032 10.036-.989.645-2.907 1.022-3.896.766zm36.981-6.436c-2.62-.553-4.44-2.01-5.592-4.476-.553-1.184-.71-1.973-.786-3.964-.168-4.335.992-8.166 3.698-12.21 1.83-2.736 3.178-3.992 5.438-5.066 4.486-2.132 9.005-.488 10.636 3.87 1.946 5.2 1.06 9.257-2.411 11.027-1.52.776-4.854 1.1-8.134.79-1.934-.182-2.872-.176-3.11.021-.457.38-.432 2.657.042 3.792 1.056 2.527 5.268 2.893 9.767.85 1.685-.766 1.863-.796 2.514-.433.779.435 1.037 1.48.578 2.338-.34.635-3.396 2.139-5.887 2.896-2.097.638-5.183.896-6.753.565zm6.194-14.815c2.951-.004 3.263-.214 3.255-2.204-.007-1.604-.758-3.443-1.588-3.887-1.431-.766-3.764.71-5.593 3.54-1.474 2.28-1.336 2.923.572 2.675.51-.066 2.019-.122 3.354-.124zm30.809 12.022c-.495-.416-.94-1.152-1.159-1.918-.417-1.457-.389-1.453-3.636-.45-5.493 1.697-10.187.951-13.497-2.145-5.107-4.777-3.048-13.79 3.939-17.243 1.898-.938 2.114-.984 4.65-.984 2.457 0 2.768.06 4.086.79 3.09 1.71 3.857 5.255 1.695 7.824-1.741 2.07-5.43 3.637-9.127 3.88-1.52.099-2.346.266-2.433.492-.233.608.997 2.046 2.341 2.738 2.5 1.287 6.272 1.062 10.68-.635l2.297-.884 1.491-4.417c1.805-5.346 3.32-8.501 4.635-9.656.836-.734 1.113-.833 2.006-.713 1.19.16 1.868.683 2.33 1.8.33.796.224 1.44-.855 5.196-.226.785-.24 1.206-.045 1.401.195.195 2.576-.866 7.926-3.53 10.514-5.236 12.248-5.881 13.367-4.976.546.443.566.549.244 1.325-.56 1.353-2.891 3.197-6.538 5.172a3203.469 3203.469 0 00-5.379 2.92c-3.288 1.79-3.148 1.837 5.953 1.988 8.556.143 8.799.183 9.522 1.583.662 1.28.512 2.327-.474 3.313-1.164 1.165-2.497 1.317-9.577 1.092-8.456-.268-13.336-.772-16.097-1.664-.816-.263-1.373-.321-1.534-.16-.14.14-.649 1.782-1.131 3.65-.755 2.919-.996 3.502-1.712 4.142a3.022 3.022 0 01-3.968.07zm-10.537-14.287c2.25-.756 3.626-1.762 3.626-2.652 0-1.15-1.572-1.461-3.895-.771-2.113.627-4.727 3.204-4.169 4.108.232.376 2.17.076 4.438-.685zm-67.955-5.765c-.486-.486-.968-1.22-1.072-1.632-.274-1.096.663-4.004 2.935-9.101 1.5-3.365 1.883-4.46 1.64-4.686-.235-.218-1.62-.033-5.344.714-2.765.555-6.8 1.209-8.969 1.453-6.116.689-8.133.293-9.224-1.81-.667-1.287-.451-2.544.622-3.617 1.028-1.028 1.845-1.228 7.12-1.746 6.846-.671 19.122-3.048 20.57-3.983.327-.211.967-1.125 1.423-2.032.456-.906 2.618-4.863 4.806-8.792 8.31-14.925 15.234-25.643 18.438-28.537 4.397-3.973 9.004-1.652 9.002 4.536-.001 4.818-3.059 20.738-7.403 38.553-3.195 13.098-4.452 16.893-6.004 18.113-2.313 1.82-5.382.908-6.577-1.953-.534-1.277-.566-1.092 1.805-10.523 1.409-5.608 1.83-7.67 1.611-7.89-.219-.22-1.322.145-4.233 1.403-2.165.935-4.366 1.84-4.89 2.01-.87.283-1.137.65-3.072 4.205a731.929 731.929 0 00-4.735 8.905c-1.61 3.08-3.033 5.45-3.696 6.152-1.007 1.065-1.173 1.142-2.474 1.142-1.229 0-1.5-.106-2.279-.884zm24.367-29.18c2.558-.82 3.031-1.059 3.266-1.653.434-1.097 2.937-12.445 2.937-13.316 0-1.673-.703-.797-4.287 5.345-4.148 7.108-5.565 9.774-5.408 10.182.2.523.042.549 3.492-.557zm50.217 20.814c-2.771-.317-6.059-1.024-8.127-1.746-2.336-.817-5.998-2.766-7.789-4.148-3.194-2.464-6.44-6.735-7.032-9.256-.206-.875-.969-1.325-2.059-1.215l-.813.082-2.06 6.277c-1.132 3.452-2.314 6.69-2.627 7.196-1.467 2.374-4.668 2.852-6.712 1.003-.851-.77-1.503-2.353-1.503-3.651 0-4.025 4.363-17.605 7.944-24.727.592-1.179 1.772-4.188 2.622-6.688 2.55-7.5 4.202-11.763 5.99-15.455 1.412-2.919 1.879-3.636 2.796-4.3 1.493-1.082 2.807-1.087 3.88-.015 1.067 1.068 1.239 2.266.689 4.811-.596 2.759-.43 2.91 1.91 1.734 1-.503 2.83-1.249 4.067-1.656 2.046-.675 2.607-.744 6.218-.76 3.6-.015 4.115.043 5.548.62 3.118 1.255 5.173 4.154 5.164 7.283-.01 3.684-2.657 8.38-7.397 13.127-4.37 4.377-9.381 8.127-15.552 11.637-1.346.766-2.448 1.533-2.448 1.706 0 .333 2.876 2.989 5.28 4.875 6.229 4.888 16.083 6.036 28.322 3.3 5.395-1.207 12.257-3.745 17.123-6.334 3.007-1.6 3.969-1.757 5.615-.917 1.957.998 2.81 3.365 1.931 5.353-.88 1.99-2.888 3.283-9.107 5.866-7.01 2.911-13.34 4.715-19.582 5.58-3.477.482-9.843.699-12.29.418zm-19.499-26.6c7.29-3.942 14.82-10.12 17.842-14.64 1.337-1.998 1.614-3.044.881-3.325-.723-.277-2.824-.168-4.54.237-5.559 1.31-11.29 5.901-15.217 12.188-.723 1.159-2.375 6.152-2.153 6.511.266.43 1.02.2 3.187-.972zm31.126 12.539c-4.183-1.609-5.935-7.198-4.595-14.657.904-5.028 2.119-8.662 5.298-15.847.895-2.023 1.572-3.821 1.504-3.998-.068-.176-.622-.4-1.232-.498-2.275-.364-3.2-1.335-2.797-2.937.202-.807 1.253-1.36 4.787-2.516 1.455-.476 2.785-.976 2.956-1.11.171-.135 1.112-1.694 2.09-3.464 2.246-4.06 3.783-6.46 5.541-8.65 2.715-3.382 4.001-4.018 6.103-3.02 2.104.998 2.479 3.28 1.146 6.983-1.36 3.78-1.41 3.964-1.14 4.234.161.161 2.755-.47 7.124-1.735 11.236-3.252 10.552-3.09 11.741-2.77 2.295.617 3.427 2.769 2.457 4.668-.68 1.333-1.27 1.846-2.705 2.353-1.232.434-13.221 3.739-18.645 5.138-1.746.451-3.618.94-4.16 1.089-.936.256-1.066.435-2.611 3.634-4.24 8.772-6.918 15.691-7.888 20.373-.93 4.49-.679 5.011 1.652 3.406 3.54-2.438 9.26-9.138 12.061-14.13 2.095-3.733 2.21-3.88 3.28-4.231 1.863-.612 3.62.657 3.62 2.614 0 1.86-3.61 8.271-7.753 13.77-5.276 7.003-9.712 10.697-13.89 11.566-1.867.388-2.323.358-3.944-.265z" fill="#543e96"/></g></svg>